<?xml version="1.0" standalone="no"?>
<!DOCTYPE svg PUBLIC "-//W3C//DTD SVG 20010904//EN"
 "http://www.w3.org/TR/2001/REC-SVG-20010904/DTD/svg10.dtd">
<svg version="1.0" xmlns="http://www.w3.org/2000/svg"
 width="750.000000pt" height="750.000000pt" viewBox="0 0 750.000000 750.000000"
 preserveAspectRatio="xMidYMid meet">
<metadata>
Created by potrace 1.14, written by Peter Selinger 2001-2017
</metadata>
<g transform="translate(0.000000,750.000000) scale(0.100000,-0.100000)"
fill="#000000" stroke="none">
<path d="M3550 6363 c-572 -56 -1029 -240 -1459 -586 -188 -151 -415 -407
-557 -627 -57 -89 -181 -331 -214 -415 -125 -329 -177 -587 -187 -925 -4 -158
-2 -238 11 -350 71 -608 327 -1140 756 -1570 413 -414 939 -671 1542 -752 141
-19 517 -16 663 5 715 105 1324 465 1754 1037 288 383 481 890 507 1325 l5 90
-62 65 c-34 36 -157 162 -273 280 -116 118 -310 316 -431 440 -121 124 -317
324 -435 445 -119 121 -508 518 -864 883 -634 648 -649 662 -684 660 -21 0
-53 -3 -72 -5z"/>
</g>
</svg>
